<?xml version="1.0" standalone="no"?>
<!DOCTYPE svg PUBLIC "-//W3C//DTD SVG 20010904//EN"
 "http://www.w3.org/TR/2001/REC-SVG-20010904/DTD/svg10.dtd">
<svg version="1.0" xmlns="http://www.w3.org/2000/svg"
 width="225.000000pt" height="225.000000pt" viewBox="0 0 225.000000 225.000000"
 preserveAspectRatio="xMidYMid meet">

<g transform="translate(0.000000,225.000000) scale(0.100000,-0.100000)"
fill="#fff" stroke="none">
<path d="M901 2225 c-350 -79 -639 -303 -785 -610 -78 -162 -106 -291 -106
-483 0 -332 112 -597 345 -821 189 -180 405 -278 665 -301 258 -23 513 39 722
176 94 62 261 228 323 323 134 204 193 447 174 716 -10 141 -41 251 -109 390
-68 139 -129 223 -233 322 -131 124 -291 216 -472 269 -80 24 -110 27 -275 30
-136 3 -202 0 -249 -11z m-124 -577 c60 -57 46 -165 -28 -204 -91 -46 -199 29
-186 129 14 100 140 145 214 75z m43 -672 c0 -206 -3 -376 -7 -378 -5 -2 -63
-2 -130 0 l-123 3 0 375 0 374 130 0 130 0 0 -374z m390 317 l0 -57 38 36 c53
51 97 70 173 76 136 9 231 -37 277 -136 27 -57 27 -58 30 -334 l3 -278 -120 0
-121 0 0 200 c0 301 -15 340 -129 340 -64 0 -92 -15 -119 -63 -14 -27 -17 -66
-20 -254 l-4 -223 -119 0 -119 0 0 375 0 375 115 0 115 0 0 -57z"/>
</g>
</svg>
