<?xml version="1.0" standalone="no"?>
<!DOCTYPE svg PUBLIC "-//W3C//DTD SVG 20010904//EN"
 "http://www.w3.org/TR/2001/REC-SVG-20010904/DTD/svg10.dtd">
<svg version="1.0" xmlns="http://www.w3.org/2000/svg"
 width="256.000000pt" height="256.000000pt" viewBox="0 0 256.000000 256.000000"
 preserveAspectRatio="xMidYMid meet">

<g transform="translate(0.000000,256.000000) scale(0.100000,-0.100000)"
 stroke="none">
<path fill="white" d="M1094 2336 c-228 -37 -429 -140 -585 -297 -213 -218 -324 -534 -290
-835 28 -243 116 -435 281 -608 l75 -78 3 -127 c3 -110 6 -129 24 -148 37 -40
60 -37 198 22 l130 55 97 -19 c203 -41 362 -36 539 14 590 170 902 815 671
1387 -97 242 -309 457 -548 559 -175 74 -415 105 -595 75z m818 -723 c10 -9
18 -23 18 -31 0 -16 -300 -498 -338 -544 -44 -53 -114 -72 -174 -49 -13 5 -88
56 -166 115 -79 58 -154 106 -165 106 -13 0 -102 -61 -206 -140 -101 -77 -190
-140 -199 -140 -20 0 -52 29 -52 48 0 20 322 531 352 558 34 32 63 44 102 44
53 0 70 -9 224 -124 79 -58 154 -106 165 -106 13 0 102 61 206 140 102 77 191
140 199 140 9 0 24 -7 34 -17z"/>
</g>
</svg>
